<svg xmlns="http://www.w3.org/2000/svg" xmlns:xlink="http://www.w3.org/1999/xlink" width="2000" zoomAndPan="magnify" viewBox="0 0 1500 1499.999933" height="2000" preserveAspectRatio="xMidYMid meet" version="1.0"><defs><g/></defs><rect x="-150" width="1800" fill="#ffffff" y="-149.999993" height="1799.99992" fill-opacity="1"/><rect x="-150" width="1800" fill="#1e1e1e" y="-149.999993" height="1799.99992" fill-opacity="1"/><g fill="#ffffff" fill-opacity="1"><g transform="translate(364.464849, 1027.128472)"><g><path d="M 747.78125 -53.671875 C 757.320312 -51.878906 761.796875 -46.359375 761.203125 -37.109375 C 760.609375 -27.867188 756.132812 -21.757812 747.78125 -18.78125 C 722.144531 -9.832031 696.351562 -6.398438 670.40625 -8.484375 C 644.46875 -10.578125 620.171875 -19.972656 597.515625 -36.671875 C 576.640625 -52.179688 558.894531 -70.96875 544.28125 -93.03125 C 529.675781 -115.09375 516.414062 -137.15625 504.5 -159.21875 C 493.164062 -180.09375 481.238281 -201.265625 468.71875 -222.734375 C 456.195312 -244.203125 441.289062 -263.582031 424 -280.875 C 416.238281 -288.625 405.5 -294.734375 391.78125 -299.203125 C 378.070312 -303.679688 363.910156 -305.617188 349.296875 -305.015625 C 334.691406 -304.421875 321.722656 -300.847656 310.390625 -294.296875 C 283.554688 -278.785156 259.109375 -260.742188 237.046875 -240.171875 C 214.984375 -219.597656 192.914062 -198.28125 170.84375 -176.21875 C 170.25 -150.570312 169.207031 -124.628906 167.71875 -98.390625 C 166.226562 -72.148438 163.691406 -45.613281 160.109375 -18.78125 C 159.515625 -11.03125 154.894531 -5.21875 146.25 -1.34375 C 137.601562 2.53125 131.191406 -0.300781 127.015625 -9.84375 C 124.628906 -14.613281 122.691406 -19.382812 121.203125 -24.15625 C 119.710938 -28.925781 118.070312 -33.695312 116.28125 -38.46875 C 113.894531 -42.039062 112.703125 -45.914062 112.703125 -50.09375 L 112.703125 -51.875 C 103.160156 -90.039062 99.878906 -129.097656 102.859375 -169.046875 C 105.847656 -209.003906 108.535156 -248.066406 110.921875 -286.234375 C 113.304688 -323.804688 114.941406 -358.988281 115.828125 -391.78125 C 116.722656 -424.582031 117.019531 -457.53125 116.71875 -490.625 C 116.425781 -523.71875 115.382812 -558.75 113.59375 -595.71875 C 113 -604.664062 116.726562 -610.179688 124.78125 -612.265625 C 132.832031 -614.359375 139.539062 -613.019531 144.90625 -608.25 L 144.90625 -609.140625 C 146.101562 -619.273438 151.617188 -625.085938 161.453125 -626.578125 C 171.296875 -628.066406 177.707031 -623.742188 180.6875 -613.609375 C 193.8125 -572.460938 201.117188 -531.765625 202.609375 -491.515625 C 204.097656 -451.273438 202.15625 -411.328125 196.78125 -371.671875 C 191.414062 -332.015625 184.859375 -292.207031 177.109375 -252.25 C 197.984375 -270.132812 220.347656 -286.234375 244.203125 -300.546875 C 268.054688 -314.859375 292.207031 -328.875 316.65625 -342.59375 C 341.101562 -356.3125 364.0625 -370.921875 385.53125 -386.421875 C 405.207031 -400.734375 425.179688 -415.34375 445.453125 -430.25 C 465.734375 -445.15625 484.222656 -461.554688 500.921875 -479.453125 C 519.992188 -499.128906 536.382812 -520.742188 550.09375 -544.296875 C 563.8125 -567.847656 575.738281 -592.441406 585.875 -618.078125 C 588.863281 -625.234375 594.082031 -629.707031 601.53125 -631.5 C 608.988281 -633.289062 614.804688 -630.3125 618.984375 -622.5625 C 630.304688 -602.28125 632.6875 -581.703125 626.125 -560.828125 C 619.570312 -539.960938 609.4375 -520.890625 595.71875 -503.609375 C 577.832031 -481.535156 557.5625 -461.253906 534.90625 -442.765625 C 512.25 -424.285156 488.992188 -407.296875 465.140625 -391.796875 C 459.773438 -387.617188 454.257812 -383.738281 448.59375 -380.15625 C 442.925781 -376.582031 437.113281 -373.003906 431.15625 -369.421875 C 444.269531 -367.035156 457.085938 -360.773438 469.609375 -350.640625 C 486.898438 -336.328125 501.207031 -319.03125 512.53125 -298.75 C 523.863281 -278.476562 533.40625 -257.910156 541.15625 -237.046875 C 545.925781 -223.921875 549.800781 -210.050781 552.78125 -195.4375 C 555.769531 -180.832031 559.796875 -166.820312 564.859375 -153.40625 C 569.929688 -139.988281 577.535156 -127.910156 587.671875 -117.171875 C 608.546875 -96.304688 633.59375 -81.992188 662.8125 -74.234375 C 692.03125 -66.484375 720.351562 -59.628906 747.78125 -53.671875 Z M 747.78125 -53.671875 "/></g></g></g></svg>